# xmcd
#
# Track frame offsets: 
#        150
#        20137
#        38557
#        58351
#        77133
#        94133
#        112778
#        131396
#        149036
#        168937
#
# Disc length: 2501 seconds
#
# Revision: 0
# Processed by: cddbd v1.5.2PL0 Copyright (c) Steve Scherf et al.
# Submitted via: ExactAudioCopy v0.95b3
#
DISCID=8509c30a
DTITLE=Tai - 02 Khaw jai gan nao
DYEAR=2004
DGENRE=Mor lam
TTITLE0=Khaw jai gan nao
TTITLE1=Gin khao rueyang
TTITLE2=Nawn fang siang fon
TTITLE3=Tua hai khit hawt
TTITLE4=Tang jai luem
TTITLE5=Rotfai sai namta
TTITLE6=Dao ten maw ton
TTITLE7=Gam paeng parinya
TTITLE8=Tem hak tem haeng
TTITLE9=Khun dawk sut tai
EXTD=
EXTT0=
EXTT1=
EXTT2=
EXTT3=
EXTT4=
EXTT5=
EXTT6=
EXTT7=
EXTT8=
EXTT9=
PLAYORDER=
